<?xml version="1.0" encoding="UTF-8" standalone="no"?>
<!DOCTYPE svg PUBLIC "-//W3C//DTD SVG 1.1//EN" "http://www.w3.org/Graphics/SVG/1.1/DTD/svg11.dtd">
<svg version="1.1" xmlns="http://www.w3.org/2000/svg" xmlns:xlink="http://www.w3.org/1999/xlink" preserveAspectRatio="xMidYMid meet" viewBox="0 0 640 640" width="640" height="640"><defs><path d="M420 320C526.66 261.43 585.91 228.89 597.76 222.38C612.51 214.29 617.71 195.65 609.3 181.09C606.87 176.87 587.39 143.13 584.95 138.91C576.54 124.34 557.8 119.54 543.42 128.26C531.86 135.27 474.05 170.31 370 233.4C372.61 111.74 374.05 44.16 374.34 30.64C374.7 13.83 361.17 0 344.35 0C339.48 0 300.52 0 295.65 0C278.83 0 265.3 13.83 265.66 30.64C265.95 44.16 267.39 111.74 270 233.4C165.95 170.31 108.14 135.27 96.58 128.26C82.2 119.54 63.46 124.35 55.05 138.91C52.61 143.13 33.13 176.87 30.7 181.09C22.29 195.65 27.5 214.29 42.24 222.39C54.09 228.89 113.34 261.43 220 320C113.34 378.57 54.09 411.11 42.24 417.62C27.49 425.71 22.29 444.35 30.7 458.91C33.13 463.13 52.61 496.87 55.05 501.09C63.46 515.66 82.2 520.46 96.58 511.74C108.14 504.73 165.95 469.69 270 406.6C267.39 528.26 265.95 595.84 265.66 609.36C265.3 626.17 278.83 640 295.65 640C300.52 640 339.48 640 344.35 640C361.17 640 374.71 626.17 374.35 609.36C374.06 595.84 372.61 528.26 370 406.6C474.05 469.69 531.86 504.73 543.42 511.74C557.8 520.46 576.54 515.65 584.95 501.09C587.39 496.87 606.87 463.13 609.3 458.91C617.71 444.34 612.51 425.71 597.76 417.62C574.06 404.6 514.81 372.06 420 320Z" id="a2sVgiYMf3"></path></defs><g><g><g><use xlink:href="#a2sVgiYMf3" opacity="1" fill="#f9f8f8" fill-opacity="0.93"></use><g><use xlink:href="#a2sVgiYMf3" opacity="1" fill-opacity="0" stroke="#000000" stroke-width="1" stroke-opacity="0"></use></g></g></g></g></svg>