<?xml version="1.0" encoding="UTF-8" standalone="no"?>
<!DOCTYPE svg PUBLIC "-//W3C//DTD SVG 1.1//EN" "http://www.w3.org/Graphics/SVG/1.1/DTD/svg11.dtd">
<svg version="1.1" xmlns="http://www.w3.org/2000/svg" xmlns:xlink="http://www.w3.org/1999/xlink" preserveAspectRatio="xMidYMid meet" viewBox="0 0 640 640" width="64" height="64"><defs><path d="M320 10C491.25 10 630 148.75 630 320C630 491.25 491.25 630 320 630C148.75 630 10 491.25 10 320C10 148.75 148.75 10 320 10ZM375 320C428.17 320 457.72 320 463.63 320C477 320 483.75 303.75 474.25 294.38C459.89 280.09 344.99 165.79 330.63 151.5C324.75 145.63 315.38 145.63 309.5 151.5C295.13 165.79 180.13 280.09 165.75 294.38C156.25 303.88 163 320 176.38 320C182.28 320 211.83 320 265 320C265 407 265 455.33 265 465C265 473.25 271.75 480 280 480C288 480 352 480 360 480C368.25 480 375 473.25 375 465C375 445.67 375 397.33 375 320Z" id="b3t2X5o1ok"></path></defs><g><g><g><use xlink:href="#b3t2X5o1ok" opacity="1" fill="#b303a6" fill-opacity="1"></use><g><use xlink:href="#b3t2X5o1ok" opacity="1" fill-opacity="0" stroke="#000000" stroke-width="1" stroke-opacity="0"></use></g></g></g></g></svg>