<?xml version="1.0" encoding="UTF-8" standalone="no"?>
<!DOCTYPE svg PUBLIC "-//W3C//DTD SVG 1.1//EN" "http://www.w3.org/Graphics/SVG/1.1/DTD/svg11.dtd">
<svg version="1.1" xmlns="http://www.w3.org/2000/svg" xmlns:xlink="http://www.w3.org/1999/xlink" preserveAspectRatio="xMidYMid meet" viewBox="-1.0000000000001137 -1.0000000000002842 644 644" width="640" height="640"><defs><path d="M320 0C143.27 0 0 143.27 0 320C0 496.73 143.27 640 320 640C496.73 640 640 496.73 640 320C640 143.27 496.73 0 320 0Z" id="b3HzxLhrf"></path><path d="M261.44 488.8C403.36 488.8 480.96 371.2 480.96 269.28C480.96 265.92 480.96 262.56 480.8 259.36C495.84 248.48 508.96 234.88 519.36 219.36C505.6 225.44 490.72 229.6 475.04 231.52C491.04 221.92 503.2 206.88 508.96 188.8C494.08 197.6 477.6 204 460 207.52C445.92 192.48 425.92 183.2 403.68 183.2C361.12 183.2 326.56 217.76 326.56 260.32C326.56 266.4 327.2 272.32 328.64 277.92C264.48 274.72 207.68 244 169.6 197.28C163.04 208.64 159.2 221.92 159.2 236C159.2 262.72 172.8 286.4 193.6 300.16C180.96 299.84 169.12 296.32 158.72 290.56C158.72 290.88 158.72 291.2 158.72 291.52C158.72 328.96 185.28 360 220.64 367.2C214.24 368.96 207.36 369.92 200.32 369.92C195.36 369.92 190.56 369.44 185.76 368.48C195.52 399.2 224 421.44 257.76 422.08C231.36 442.72 198.08 455.04 161.92 455.04C155.68 455.04 149.6 454.72 143.52 453.92C177.28 476 217.92 488.8 261.44 488.8" id="a1TxfUCJmU"></path></defs><g><g><use xlink:href="#b3HzxLhrf" opacity="1" fill="#a2a2a2" fill-opacity="1"></use></g><g><use xlink:href="#a1TxfUCJmU" opacity="1" fill="#ffffff" fill-opacity="1"></use><g><use xlink:href="#a1TxfUCJmU" opacity="1" fill-opacity="0" stroke="#000000" stroke-width="1" stroke-opacity="0"></use></g></g></g></svg>